<?xml version="1.0" encoding="UTF-8"?>
<!DOCTYPE svg PUBLIC "-//W3C//DTD SVG 1.1//EN" "http://www.w3.org/Graphics/SVG/1.1/DTD/svg11.dtd">
<svg xmlns="http://www.w3.org/2000/svg" version="1.1" width="550px" height="550px" style="shape-rendering:geometricPrecision; text-rendering:geometricPrecision; image-rendering:optimizeQuality; fill-rule:evenodd; clip-rule:evenodd" xmlns:xlink="http://www.w3.org/1999/xlink">
<g><path style="opacity:0.99" fill="#74c043" d="M 59.5,-0.5 C 163.5,-0.5 267.5,-0.5 371.5,-0.5C 371.667,37.1681 371.5,74.8348 371,112.5C 370.5,113 370,113.5 369.5,114C 343.502,114.5 317.502,114.667 291.5,114.5C 273.786,70.6178 241.119,47.9511 193.5,46.5C 147.808,49.5509 116.475,72.2176 99.5,114.5C 66.5,114.5 33.5,114.5 0.5,114.5C 0.166667,114.5 -0.166667,114.5 -0.5,114.5C -0.5,96.1667 -0.5,77.8333 -0.5,59.5C 2.73244,31.9124 17.3991,13.0791 43.5,3C 48.9052,1.50382 54.2386,0.337157 59.5,-0.5 Z"/></g>
<g><path style="opacity:0.995" fill="#fefefe" d="M 371.5,-0.5 C 397.167,-0.5 422.833,-0.5 448.5,-0.5C 448.333,37.5015 448.5,75.5015 449,113.5C 482.427,114.496 515.927,114.829 549.5,114.5C 549.5,141.5 549.5,168.5 549.5,195.5C 515.927,195.171 482.427,195.504 449,196.5C 448.5,238.499 448.333,280.499 448.5,322.5C 444.067,316.406 438.4,311.739 431.5,308.5C 430.667,250.836 430.167,193.17 430,135.5C 385.572,134.503 341.072,134.17 296.5,134.5C 295.769,127.577 294.103,120.91 291.5,114.5C 317.502,114.667 343.502,114.5 369.5,114C 370,113.5 370.5,113 371,112.5C 371.5,74.8348 371.667,37.1681 371.5,-0.5 Z"/></g>
<g><path style="opacity:0.99" fill="#dcd2a1" d="M 448.5,-0.5 C 462.167,-0.5 475.833,-0.5 489.5,-0.5C 517.088,2.73244 535.921,17.3991 546,43.5C 547.496,48.9052 548.663,54.2386 549.5,59.5C 549.5,77.8333 549.5,96.1667 549.5,114.5C 515.927,114.829 482.427,114.496 449,113.5C 448.5,75.5015 448.333,37.5015 448.5,-0.5 Z"/></g>
<g><path style="opacity:1" fill="#d23e2a" d="M 291.5,114.5 C 294.103,120.91 295.769,127.577 296.5,134.5C 297.854,148.655 296.854,162.655 293.5,176.5C 292.662,176.842 292.328,177.508 292.5,178.5C 290.766,183.372 289.433,188.372 288.5,193.5C 272.004,242.827 249.837,289.494 222,333.5C 213.893,346.728 205.06,359.395 195.5,371.5C 155.588,317.015 124.588,257.682 102.5,193.5C 101.567,188.372 100.234,183.372 98.5,178.5C 98.6716,177.508 98.3382,176.842 97.5,176.5C 93.7662,162.691 92.7662,148.691 94.5,134.5C 95.6624,127.682 97.3291,121.015 99.5,114.5C 116.475,72.2176 147.808,49.5509 193.5,46.5C 241.119,47.9511 273.786,70.6178 291.5,114.5 Z"/></g>
<g><path style="opacity:1" fill="#fefefe" d="M 184.5,74.5 C 222.323,71.8142 249.157,87.4809 265,121.5C 275.916,157.41 266.75,186.91 237.5,210C 210.896,225.813 183.896,226.48 156.5,212C 124.224,188.413 114.391,157.58 127,119.5C 138.696,94.7589 157.863,79.7589 184.5,74.5 Z"/></g>
<g><path style="opacity:0.996" fill="#fefefe" d="M 0.5,114.5 C 33.5,114.5 66.5,114.5 99.5,114.5C 97.3291,121.015 95.6624,127.682 94.5,134.5C 63.4982,134.333 32.4982,134.5 1.5,135C 0.955796,135.717 0.28913,136.217 -0.5,136.5C -0.5,132.833 -0.5,129.167 -0.5,125.5C 0.481638,122.038 0.814971,118.371 0.5,114.5 Z"/></g>
<g><path style="opacity:0.993" fill="#2d63af" d="M 94.5,134.5 C 92.7662,148.691 93.7662,162.691 97.5,176.5C 65.8333,176.5 34.1667,176.5 2.5,176.5C 1.5,175.833 0.5,175.167 -0.5,174.5C -0.5,161.833 -0.5,149.167 -0.5,136.5C 0.28913,136.217 0.955796,135.717 1.5,135C 32.4982,134.5 63.4982,134.333 94.5,134.5 Z"/></g>
<g><path style="opacity:1" fill="#2d64b0" d="M 296.5,134.5 C 341.072,134.17 385.572,134.503 430,135.5C 430.167,193.17 430.667,250.836 431.5,308.5C 438.4,311.739 444.067,316.406 448.5,322.5C 460.421,341.799 460.421,361.133 448.5,380.5C 427.843,402.478 404.843,405.311 379.5,389C 376.631,385.962 373.631,383.129 370.5,380.5C 358.579,361.133 358.579,341.799 370.5,322.5C 374.933,316.406 380.6,311.739 387.5,308.5C 388.831,264.669 388.831,221.002 387.5,177.5C 356.338,176.502 325.004,176.168 293.5,176.5C 296.854,162.655 297.854,148.655 296.5,134.5 Z"/></g>
<g><path style="opacity:0.992" fill="#fefdfd" d="M -0.5,174.5 C 0.5,175.167 1.5,175.833 2.5,176.5C 34.4023,177.174 66.4023,177.84 98.5,178.5C 100.234,183.372 101.567,188.372 102.5,193.5C 68.5162,195.493 34.1829,196.16 -0.5,195.5C -0.5,188.5 -0.5,181.5 -0.5,174.5 Z"/></g>
<g><path style="opacity:1" fill="#cbd7e9" d="M 2.5,176.5 C 34.1667,176.5 65.8333,176.5 97.5,176.5C 98.3382,176.842 98.6716,177.508 98.5,178.5C 66.4023,177.84 34.4023,177.174 2.5,176.5 Z"/></g>
<g><path style="opacity:1" fill="#cbd6e9" d="M 293.5,176.5 C 325.004,176.168 356.338,176.502 387.5,177.5C 355.76,177.175 324.093,177.508 292.5,178.5C 292.328,177.508 292.662,176.842 293.5,176.5 Z"/></g>
<g><path style="opacity:1" fill="#fefdfc" d="M 387.5,177.5 C 388.831,221.002 388.831,264.669 387.5,308.5C 380.6,311.739 374.933,316.406 370.5,322.5C 370.667,280.499 370.5,238.499 370,196.5C 342.553,196.171 315.387,195.171 288.5,193.5C 289.433,188.372 290.766,183.372 292.5,178.5C 324.093,177.508 355.76,177.175 387.5,177.5 Z"/></g>
<g><path style="opacity:0.998" fill="#dbd1a0" d="M 102.5,193.5 C 124.588,257.682 155.588,317.015 195.5,371.5C 205.06,359.395 213.893,346.728 222,333.5C 249.837,289.494 272.004,242.827 288.5,193.5C 315.387,195.171 342.553,196.171 370,196.5C 370.5,238.499 370.667,280.499 370.5,322.5C 358.579,341.799 358.579,361.133 370.5,380.5C 370.5,413.833 370.5,447.167 370.5,480.5C 315.971,476.895 263.305,465.061 212.5,445C 188.022,435.095 164.022,424.095 140.5,412C 101.014,390.76 62.0139,368.76 23.5,346C 15.8631,341.348 7.86309,337.514 -0.5,334.5C -0.5,288.167 -0.5,241.833 -0.5,195.5C 34.1829,196.16 68.5162,195.493 102.5,193.5 Z"/></g>
<g><path style="opacity:0.993" fill="#dbd1a0" d="M 549.5,195.5 C 549.5,293.5 549.5,391.5 549.5,489.5C 548.566,490.568 548.232,491.901 548.5,493.5C 515.104,492.883 481.771,491.216 448.5,488.5C 448.5,452.5 448.5,416.5 448.5,380.5C 460.421,361.133 460.421,341.799 448.5,322.5C 448.333,280.499 448.5,238.499 449,196.5C 482.427,195.504 515.927,195.171 549.5,195.5 Z"/></g>
<g><path style="opacity:0.997" fill="#dcb727" d="M -0.5,334.5 C 7.86309,337.514 15.8631,341.348 23.5,346C 62.0139,368.76 101.014,390.76 140.5,412C 164.022,424.095 188.022,435.095 212.5,445C 263.305,465.061 315.971,476.895 370.5,480.5C 371.489,503.425 371.822,526.425 371.5,549.5C 363.833,549.5 356.167,549.5 348.5,549.5C 285.89,541.334 225.557,524.501 167.5,499C 155.918,493.473 144.251,488.14 132.5,483C 88.3613,460.264 44.0279,438.097 -0.5,416.5C -0.5,389.167 -0.5,361.833 -0.5,334.5 Z"/></g>
<g><path style="opacity:0.995" fill="#fefefe" d="M 370.5,380.5 C 373.631,383.129 376.631,385.962 379.5,389C 404.843,405.311 427.843,402.478 448.5,380.5C 448.5,416.5 448.5,452.5 448.5,488.5C 447.503,508.66 447.17,528.993 447.5,549.5C 422.167,549.5 396.833,549.5 371.5,549.5C 371.822,526.425 371.489,503.425 370.5,480.5C 370.5,447.167 370.5,413.833 370.5,380.5 Z"/></g>
<g><path style="opacity:0.983" fill="#dcd1a0" d="M -0.5,416.5 C 44.0279,438.097 88.3613,460.264 132.5,483C 144.251,488.14 155.918,493.473 167.5,499C 225.557,524.501 285.89,541.334 348.5,549.5C 252.167,549.5 155.833,549.5 59.5,549.5C 31.9124,546.268 13.0791,531.601 3,505.5C 1.50382,500.095 0.337157,494.761 -0.5,489.5C -0.5,465.167 -0.5,440.833 -0.5,416.5 Z"/></g>
<g><path style="opacity:0.987" fill="#dcb728" d="M 448.5,488.5 C 481.771,491.216 515.104,492.883 548.5,493.5C 544.77,518.07 531.436,535.237 508.5,545C 502.143,547.008 495.81,548.508 489.5,549.5C 475.5,549.5 461.5,549.5 447.5,549.5C 447.17,528.993 447.503,508.66 448.5,488.5 Z"/></g>
</svg>
